#N canvas 142 88 964 650 10;
#X obj 39 26 r play @hv_event;
#X msg 39 114 bang;
#X obj 39 136 random 10;
#X obj 39 158 route 0 1 2 3 4 5 6 7 8 9;
#N canvas 640 196 450 300 track1 0;
#X obj 141 469 line~;
#X obj 172 411 pack;
#X obj 210 326 / 44.1;
#X msg 141 357 0;
#X obj 174 382 f;
#X obj 34 419 delay;
#X obj 95 322 t b b b;
#X obj 141 503 tabread4~ track01;
#X obj 132 564 dac~;
#X obj 178 289 t f f;
#X obj 208 356 t f f;
#X obj 285 470 r track01vol @hv_param 0 1 0.5;
#X obj 278 518 line~ f 10;
#X obj 116 540 *~;
#X obj 156 540 *~;
#X obj 92 294 inlet;
#X obj 35 454 outlet;
#X obj 178 262 r track01length @hv_param 0 4.41e+06 0;
#X connect 0 0 7 0;
#X connect 1 0 0 0;
#X connect 2 0 10 0;
#X connect 3 0 0 0;
#X connect 4 0 1 0;
#X connect 5 0 16 0;
#X connect 6 0 5 0;
#X connect 6 1 4 0;
#X connect 6 2 3 0;
#X connect 7 0 13 0;
#X connect 7 0 14 0;
#X connect 9 0 4 1;
#X connect 9 1 2 0;
#X connect 10 0 5 1;
#X connect 10 1 1 1;
#X connect 11 0 12 0;
#X connect 12 0 13 1;
#X connect 12 0 14 1;
#X connect 13 0 8 0;
#X connect 14 0 8 1;
#X connect 15 0 6 0;
#X connect 17 0 9 0;
#X restore 39 379 pd track1;
#N canvas 640 196 450 300 track2 0;
#X obj 141 469 line~;
#X obj 172 411 pack;
#X obj 210 326 / 44.1;
#X msg 141 357 0;
#X obj 174 382 f;
#X obj 34 419 delay;
#X obj 95 322 t b b b;
#X obj 132 564 dac~;
#X obj 178 289 t f f;
#X obj 208 356 t f f;
#X obj 278 518 line~ f 10;
#X obj 116 540 *~;
#X obj 156 540 *~;
#X obj 92 294 inlet;
#X obj 35 454 outlet;
#X obj 285 470 r track02vol @hv_param 0 1 0.5;
#X obj 141 503 tabread4~ track02;
#X obj 178 262 r track02length @hv_param 0 4.41e+06 0;
#X connect 0 0 16 0;
#X connect 1 0 0 0;
#X connect 2 0 9 0;
#X connect 3 0 0 0;
#X connect 4 0 1 0;
#X connect 5 0 14 0;
#X connect 6 0 5 0;
#X connect 6 1 4 0;
#X connect 6 2 3 0;
#X connect 8 0 4 1;
#X connect 8 1 2 0;
#X connect 9 0 5 1;
#X connect 9 1 1 1;
#X connect 10 0 11 1;
#X connect 10 0 12 1;
#X connect 11 0 7 0;
#X connect 12 0 7 1;
#X connect 13 0 6 0;
#X connect 15 0 10 0;
#X connect 16 0 11 0;
#X connect 16 0 12 0;
#X connect 17 0 8 0;
#X restore 60 356 pd track2;
#N canvas 640 196 450 300 track3 0;
#X obj 141 469 line~;
#X obj 172 411 pack;
#X obj 210 326 / 44.1;
#X msg 141 357 0;
#X obj 174 382 f;
#X obj 34 419 delay;
#X obj 95 322 t b b b;
#X obj 132 564 dac~;
#X obj 178 289 t f f;
#X obj 208 356 t f f;
#X obj 278 518 line~ f 10;
#X obj 116 540 *~;
#X obj 156 540 *~;
#X obj 92 294 inlet;
#X obj 35 454 outlet;
#X obj 178 262 r track03length @hv_param 0 4.41e+06 0;
#X obj 285 470 r track03vol @hv_param 0 1 0.5;
#X obj 141 503 tabread4~ track03;
#X connect 0 0 17 0;
#X connect 1 0 0 0;
#X connect 2 0 9 0;
#X connect 3 0 0 0;
#X connect 4 0 1 0;
#X connect 5 0 14 0;
#X connect 6 0 5 0;
#X connect 6 1 4 0;
#X connect 6 2 3 0;
#X connect 8 0 4 1;
#X connect 8 1 2 0;
#X connect 9 0 5 1;
#X connect 9 1 1 1;
#X connect 10 0 11 1;
#X connect 10 0 12 1;
#X connect 11 0 7 0;
#X connect 12 0 7 1;
#X connect 13 0 6 0;
#X connect 15 0 8 0;
#X connect 16 0 10 0;
#X connect 17 0 11 0;
#X connect 17 0 12 0;
#X restore 79 335 pd track3;
#N canvas 640 196 450 300 track4 0;
#X obj 141 469 line~;
#X obj 172 411 pack;
#X obj 210 326 / 44.1;
#X msg 141 357 0;
#X obj 174 382 f;
#X obj 34 419 delay;
#X obj 95 322 t b b b;
#X obj 132 564 dac~;
#X obj 178 289 t f f;
#X obj 208 356 t f f;
#X obj 278 518 line~ f 10;
#X obj 116 540 *~;
#X obj 156 540 *~;
#X obj 92 294 inlet;
#X obj 35 454 outlet;
#X obj 178 262 r track04length @hv_param 0 4.41e+06 0;
#X obj 285 470 r track04vol @hv_param 0 1 0.5;
#X obj 141 503 tabread4~ track04;
#X connect 0 0 17 0;
#X connect 1 0 0 0;
#X connect 2 0 9 0;
#X connect 3 0 0 0;
#X connect 4 0 1 0;
#X connect 5 0 14 0;
#X connect 6 0 5 0;
#X connect 6 1 4 0;
#X connect 6 2 3 0;
#X connect 8 0 4 1;
#X connect 8 1 2 0;
#X connect 9 0 5 1;
#X connect 9 1 1 1;
#X connect 10 0 11 1;
#X connect 10 0 12 1;
#X connect 11 0 7 0;
#X connect 12 0 7 1;
#X connect 13 0 6 0;
#X connect 15 0 8 0;
#X connect 16 0 10 0;
#X connect 17 0 11 0;
#X connect 17 0 12 0;
#X restore 94 313 pd track4;
#N canvas 640 196 450 300 track5 0;
#X obj 141 469 line~;
#X obj 172 411 pack;
#X obj 210 326 / 44.1;
#X msg 141 357 0;
#X obj 174 382 f;
#X obj 34 419 delay;
#X obj 95 322 t b b b;
#X obj 132 564 dac~;
#X obj 178 289 t f f;
#X obj 208 356 t f f;
#X obj 278 518 line~ f 10;
#X obj 116 540 *~;
#X obj 156 540 *~;
#X obj 92 294 inlet;
#X obj 35 454 outlet;
#X obj 178 262 r track05length @hv_param 0 4.41e+06 0;
#X obj 285 470 r track05vol @hv_param 0 1 0.5;
#X obj 141 503 tabread4~ track05;
#X connect 0 0 17 0;
#X connect 1 0 0 0;
#X connect 2 0 9 0;
#X connect 3 0 0 0;
#X connect 4 0 1 0;
#X connect 5 0 14 0;
#X connect 6 0 5 0;
#X connect 6 1 4 0;
#X connect 6 2 3 0;
#X connect 8 0 4 1;
#X connect 8 1 2 0;
#X connect 9 0 5 1;
#X connect 9 1 1 1;
#X connect 10 0 11 1;
#X connect 10 0 12 1;
#X connect 11 0 7 0;
#X connect 12 0 7 1;
#X connect 13 0 6 0;
#X connect 15 0 8 0;
#X connect 16 0 10 0;
#X connect 17 0 11 0;
#X connect 17 0 12 0;
#X restore 109 289 pd track5;
#N canvas 640 196 450 300 track6 0;
#X obj 141 469 line~;
#X obj 172 411 pack;
#X obj 210 326 / 44.1;
#X msg 141 357 0;
#X obj 174 382 f;
#X obj 34 419 delay;
#X obj 95 322 t b b b;
#X obj 132 564 dac~;
#X obj 178 289 t f f;
#X obj 208 356 t f f;
#X obj 278 518 line~ f 10;
#X obj 116 540 *~;
#X obj 156 540 *~;
#X obj 92 294 inlet;
#X obj 35 454 outlet;
#X obj 178 262 r track06length @hv_param 0 4.41e+06 0;
#X obj 285 470 r track06vol @hv_param 0 1 0.5;
#X obj 141 503 tabread4~ track06;
#X connect 0 0 17 0;
#X connect 1 0 0 0;
#X connect 2 0 9 0;
#X connect 3 0 0 0;
#X connect 4 0 1 0;
#X connect 5 0 14 0;
#X connect 6 0 5 0;
#X connect 6 1 4 0;
#X connect 6 2 3 0;
#X connect 8 0 4 1;
#X connect 8 1 2 0;
#X connect 9 0 5 1;
#X connect 9 1 1 1;
#X connect 10 0 11 1;
#X connect 10 0 12 1;
#X connect 11 0 7 0;
#X connect 12 0 7 1;
#X connect 13 0 6 0;
#X connect 15 0 8 0;
#X connect 16 0 10 0;
#X connect 17 0 11 0;
#X connect 17 0 12 0;
#X restore 125 267 pd track6;
#N canvas 640 196 450 300 track7 0;
#X obj 141 469 line~;
#X obj 172 411 pack;
#X obj 210 326 / 44.1;
#X msg 141 357 0;
#X obj 174 382 f;
#X obj 34 419 delay;
#X obj 95 322 t b b b;
#X obj 132 564 dac~;
#X obj 178 289 t f f;
#X obj 208 356 t f f;
#X obj 278 518 line~ f 10;
#X obj 116 540 *~;
#X obj 156 540 *~;
#X obj 92 294 inlet;
#X obj 35 454 outlet;
#X obj 178 262 r track07length @hv_param 0 4.41e+06 0;
#X obj 141 503 tabread4~ track07;
#X obj 285 470 r track07vol @hv_param 0 1 0.5;
#X connect 0 0 16 0;
#X connect 1 0 0 0;
#X connect 2 0 9 0;
#X connect 3 0 0 0;
#X connect 4 0 1 0;
#X connect 5 0 14 0;
#X connect 6 0 5 0;
#X connect 6 1 4 0;
#X connect 6 2 3 0;
#X connect 8 0 4 1;
#X connect 8 1 2 0;
#X connect 9 0 5 1;
#X connect 9 1 1 1;
#X connect 10 0 11 1;
#X connect 10 0 12 1;
#X connect 11 0 7 0;
#X connect 12 0 7 1;
#X connect 13 0 6 0;
#X connect 15 0 8 0;
#X connect 16 0 11 0;
#X connect 16 0 12 0;
#X connect 17 0 10 0;
#X restore 142 246 pd track7;
#N canvas 640 196 450 300 track8 0;
#X obj 141 469 line~;
#X obj 172 411 pack;
#X obj 210 326 / 44.1;
#X msg 141 357 0;
#X obj 174 382 f;
#X obj 34 419 delay;
#X obj 95 322 t b b b;
#X obj 132 564 dac~;
#X obj 178 289 t f f;
#X obj 208 356 t f f;
#X obj 278 518 line~ f 10;
#X obj 116 540 *~;
#X obj 156 540 *~;
#X obj 92 294 inlet;
#X obj 35 454 outlet;
#X obj 178 262 r track08length @hv_param 0 4.41e+06 0;
#X obj 141 503 tabread4~ track08;
#X obj 285 470 r track08vol @hv_param 0 1 0.5;
#X connect 0 0 16 0;
#X connect 1 0 0 0;
#X connect 2 0 9 0;
#X connect 3 0 0 0;
#X connect 4 0 1 0;
#X connect 5 0 14 0;
#X connect 6 0 5 0;
#X connect 6 1 4 0;
#X connect 6 2 3 0;
#X connect 8 0 4 1;
#X connect 8 1 2 0;
#X connect 9 0 5 1;
#X connect 9 1 1 1;
#X connect 10 0 11 1;
#X connect 10 0 12 1;
#X connect 11 0 7 0;
#X connect 12 0 7 1;
#X connect 13 0 6 0;
#X connect 15 0 8 0;
#X connect 16 0 11 0;
#X connect 16 0 12 0;
#X connect 17 0 10 0;
#X restore 160 224 pd track8;
#N canvas 640 196 450 300 track9 0;
#X obj 141 469 line~;
#X obj 172 411 pack;
#X obj 210 326 / 44.1;
#X msg 141 357 0;
#X obj 174 382 f;
#X obj 34 419 delay;
#X obj 95 322 t b b b;
#X obj 132 564 dac~;
#X obj 178 289 t f f;
#X obj 208 356 t f f;
#X obj 278 518 line~ f 10;
#X obj 116 540 *~;
#X obj 156 540 *~;
#X obj 92 294 inlet;
#X obj 35 454 outlet;
#X obj 178 262 r track09length @hv_param 0 4.41e+06 0;
#X obj 141 503 tabread4~ track09;
#X obj 285 470 r track09vol @hv_param 0 1 0.5;
#X connect 0 0 16 0;
#X connect 1 0 0 0;
#X connect 2 0 9 0;
#X connect 3 0 0 0;
#X connect 4 0 1 0;
#X connect 5 0 14 0;
#X connect 6 0 5 0;
#X connect 6 1 4 0;
#X connect 6 2 3 0;
#X connect 8 0 4 1;
#X connect 8 1 2 0;
#X connect 9 0 5 1;
#X connect 9 1 1 1;
#X connect 10 0 11 1;
#X connect 10 0 12 1;
#X connect 11 0 7 0;
#X connect 12 0 7 1;
#X connect 13 0 6 0;
#X connect 15 0 8 0;
#X connect 16 0 11 0;
#X connect 16 0 12 0;
#X connect 17 0 10 0;
#X restore 176 204 pd track9;
#N canvas 640 196 450 300 track10 0;
#X obj 141 469 line~;
#X obj 172 411 pack;
#X obj 210 326 / 44.1;
#X msg 141 357 0;
#X obj 174 382 f;
#X obj 34 419 delay;
#X obj 95 322 t b b b;
#X obj 132 564 dac~;
#X obj 178 289 t f f;
#X obj 208 356 t f f;
#X obj 278 518 line~ f 10;
#X obj 116 540 *~;
#X obj 156 540 *~;
#X obj 92 294 inlet;
#X obj 35 454 outlet;
#X obj 178 262 r track10length @hv_param 0 4.41e+06 0;
#X obj 141 503 tabread4~ track10;
#X obj 285 470 r track10vol @hv_param 0 1 0.5;
#X connect 0 0 16 0;
#X connect 1 0 0 0;
#X connect 2 0 9 0;
#X connect 3 0 0 0;
#X connect 4 0 1 0;
#X connect 5 0 14 0;
#X connect 6 0 5 0;
#X connect 6 1 4 0;
#X connect 6 2 3 0;
#X connect 8 0 4 1;
#X connect 8 1 2 0;
#X connect 9 0 5 1;
#X connect 9 1 1 1;
#X connect 10 0 11 1;
#X connect 10 0 12 1;
#X connect 11 0 7 0;
#X connect 12 0 7 1;
#X connect 13 0 6 0;
#X connect 15 0 8 0;
#X connect 16 0 11 0;
#X connect 16 0 12 0;
#X connect 17 0 10 0;
#X restore 193 184 pd track10;
#X obj 459 41 table track01 0 @hv_table;
#X obj 459 61 table track02 0 @hv_table;
#X obj 459 81 table track03 0 @hv_table;
#X obj 459 101 table track04 0 @hv_table;
#X obj 459 121 table track05 0 @hv_table;
#X obj 459 141 table track06 0 @hv_table;
#X obj 459 161 table track07 0 @hv_table;
#X obj 459 181 table track08 0 @hv_table;
#X obj 459 201 table track09 0 @hv_table;
#X obj 459 221 table track10 0 @hv_table;
#X obj 3 492 print number;
#X connect 0 0 1 0;
#X connect 1 0 2 0;
#X connect 2 0 3 0;
#X connect 2 0 24 0;
#X connect 3 0 4 0;
#X connect 3 1 5 0;
#X connect 3 2 6 0;
#X connect 3 3 7 0;
#X connect 3 4 8 0;
#X connect 3 5 9 0;
#X connect 3 6 10 0;
#X connect 3 7 11 0;
#X connect 3 8 12 0;
#X connect 3 9 13 0;
#X connect 4 0 2 0;
#X connect 5 0 2 0;
#X connect 6 0 2 0;
#X connect 7 0 2 0;
#X connect 8 0 2 0;
#X connect 9 0 2 0;
#X connect 10 0 2 0;
#X connect 11 0 2 0;
#X connect 12 0 2 0;
#X connect 13 0 2 0;
